<svg width="824" height="166" viewBox="0 0 824 166" fill="none" xmlns="http://www.w3.org/2000/svg">
<path fill-rule="evenodd" clip-rule="evenodd" d="M88.263 2.57953H36.748C17.2457 2.57953 1.25827 18.5291 1.25827 38.0693V128.06C1.25827 147.6 17.2457 163.55 36.7858 163.55H88.263V67.5496H57.7622V139.058H51.526C43.2488 139.058 36.4835 132.293 36.4835 124.054V42.0756C36.4835 33.7984 43.2488 27.0709 51.4882 27.0709H88.263V2.57953Z" fill="white" stroke="white" stroke-width="0.755906"/>
<path fill-rule="evenodd" clip-rule="evenodd" d="M173.378 2.05038V27.3354H203.992C203.992 27.3354 214.499 27.6756 214.499 42.6803C214.499 57.685 207.885 66.0756 200.893 73.3323C193.901 80.5512 188.761 85.4268 187.249 92.5701C185.775 99.7134 188.761 108.935 194.014 118.573C199.268 128.211 218.279 161.962 218.279 161.962H257.51L223.759 104.702C223.759 104.702 218.128 97.3323 224.515 89.0551C230.902 80.8157 245.756 62.8252 247.532 51.9401V27.4488C247.532 27.4488 245.265 2.6929 219.753 2.6929C194.279 2.6929 173.378 2.6929 173.378 2.05038Z" fill="white" stroke="white" stroke-width="0.755906"/>
<path fill-rule="evenodd" clip-rule="evenodd" d="M373.088 0.651978H386.695C407.973 0.651978 425.397 18.0378 425.397 39.3165V126.624C425.397 147.902 407.973 165.326 386.695 165.326H373.088C351.809 165.326 334.386 147.902 334.386 126.624V39.3165C334.386 18.0378 351.809 0.651978 373.088 0.651978ZM378.191 27.8268H381.592C386.959 27.8268 391.343 32.211 391.343 37.5402V128.4C391.343 133.767 386.959 138.151 381.592 138.151H378.191C372.824 138.151 368.439 133.767 368.439 128.4V37.5402C368.439 32.211 372.824 27.8268 378.191 27.8268Z" fill="white" stroke="white" stroke-width="0.755906"/>
<path fill-rule="evenodd" clip-rule="evenodd" d="M513.838 2.57953C513.838 2.57953 511.57 77.5654 524.08 149.565C524.08 149.565 526.726 161.698 537.082 161.698C547.476 161.698 561.573 161.698 561.573 161.698C561.573 161.698 565.58 162.34 569.964 158.447C573.857 154.97 579.261 149.83 580.395 148.772C581.491 149.83 586.896 154.97 590.789 158.447C595.173 162.34 599.18 161.698 599.18 161.698C599.18 161.698 613.315 161.698 623.671 161.698C634.065 161.698 636.672 149.565 636.672 149.565C649.183 77.5654 646.915 2.57953 646.915 2.57953C646.915 3.07087 614.184 3.07087 614.184 3.07087C614.184 3.07087 610.065 131.839 605.302 132.822C600.54 133.843 595.438 126.813 589.542 120.69C584.515 115.436 581.189 115.172 580.395 115.172C579.564 115.172 576.276 115.436 571.211 120.69C565.315 126.813 560.213 133.843 555.45 132.822C550.726 131.839 546.568 3.07087 546.568 3.07087C546.568 3.07087 513.838 3.07087 513.838 2.57953Z" fill="white" stroke="white" stroke-width="0.755906"/>
<path fill-rule="evenodd" clip-rule="evenodd" d="M735.091 162.076H767.595C767.595 162.076 768.087 113.093 768.313 98.0882C768.54 84.7465 777.271 41.5465 779.198 32.1354C781.126 41.5465 789.857 84.7465 790.083 98.0882C790.31 113.093 790.839 162.076 790.839 162.076H823.343C823.343 162.076 822.814 119.594 822.096 103.833C821.34 88.0724 810.568 30.0567 806.562 16.0724C802.594 2.0882 790.348 2.0882 790.348 2.0882H779.576H778.82H768.087C768.087 2.0882 755.841 2.0882 751.835 16.0724C747.828 30.0567 737.094 88.0724 736.339 103.833C735.583 119.594 735.091 162.076 735.091 162.076Z" fill="white" stroke="white" stroke-width="0.755906"/>
</svg>
