<svg width="361" height="438" viewBox="0 0 361 438" fill="none" xmlns="http://www.w3.org/2000/svg">
<path d="M168.467 3.06672C165.533 4.66672 161.4 8.26672 159.133 11.0667C155.667 15.4667 155 17.4667 154.6 25.3334C154.067 33.3334 154.467 35.3334 157.4 40.2667C161.533 47.3334 167 51.4667 174.867 53.6001C192.867 58.4001 211.4 38.9334 206.333 20.1334C202.067 4.13339 182.2 -4.79995 168.467 3.06672Z" fill="#002B0B"/>
<path d="M159 77.4666C137.533 80.2666 111.667 89.0666 92.0667 100.267C60.8667 118.267 35.9333 144.933 19.4 178C-4.6 225.733 -5.26667 282.933 17.5333 334C28.7333 358.933 57 391.867 80.3333 407.2C111.8 427.867 142.467 437.333 178.733 437.467C264.333 437.867 339 377.333 357.267 292.933C361 275.6 361.4 242.533 358.067 226C347.8 175.867 318.067 132 275.933 104.667C241.533 82.4 198.6 72.5333 159 77.4666ZM199.8 127.333C248.867 135.867 287.667 171.867 299.133 219.6C302.067 231.333 302.067 256.133 299.267 268.933C289.933 311.867 253.267 348.667 210.067 358.533C203.933 360 196.2 361.467 192.733 362L186.333 362.8V352C186.333 317.067 203.4 288 237.933 263.867C245.267 258.8 247.667 258.8 247.667 264.133C247.667 268.667 246.2 270.4 229.933 283.867C220.067 292 212.867 300.533 206.733 310.667C203.4 316.133 197.667 331.733 198.6 332.667C199.667 333.733 217.8 327.067 226.2 322.667C251.8 308.933 269.533 282.133 276.333 246.4L277.933 237.467L270.733 236.533C256.067 234.8 239 237.867 223.667 245.067C205.4 253.6 192.2 269.6 183.533 293.2L180.467 301.733L178.2 294.933C168.467 266.133 148.067 246.267 121 239.067C112.733 236.933 84.8667 235.6 83.1333 237.467C81.8 238.667 88.7333 266.133 92.6 275.6C103.267 301.067 123.133 320 148.867 329.333C154.867 331.6 160.333 333.333 161 333.333C164.733 333.333 155.4 312.267 146.2 299.867C142.467 294.8 134.6 286.667 128.6 281.867C114.6 270.4 113 268.533 113 263.867C113 258.4 115.8 258.933 125.4 266.267C158.733 291.867 172.6 315.067 174.067 347.867L174.733 362.933L167.533 362C117.4 355.6 80.4667 326.133 64.0667 279.333C60.6 269.2 60.3333 267.467 60.3333 245.333C60.3333 222.533 60.4667 221.733 64.6 209.333C76.8667 173.2 105 144.8 140.6 132.533C162.067 125.2 179.133 123.733 199.8 127.333ZM329.933 278.267C327.933 307.467 313 337.733 289 361.067C242.867 406.267 173.133 418.933 115.8 392.533C78.0667 375.2 46.3333 339.333 34.8667 301.467C32.0667 292.267 30.2 275.867 31.4 271.467C32.4667 267.733 32.6 268 34.2 275.467C38.8667 296.533 53.2667 322.267 71.1333 341.333C117.4 390.4 184.333 402.8 245.667 373.467C283.933 355.2 317.133 315.333 327.133 275.6C328.333 270.667 329.667 266.667 330.067 266.667C330.467 266.667 330.333 271.867 329.933 278.267Z" fill="#002B0B"/>
<path d="M171.4 157.6C149.933 184.8 144.733 212.667 156.6 236.933C160.067 243.867 171.8 257.333 174.467 257.333C175.133 257.333 175.667 243.067 175.667 221.333C175.667 188.8 175.933 185.333 177.933 184.133C179.4 183.333 181.133 183.333 182.6 184.133C184.867 185.333 185 188.267 185 221.333C185 248.4 185.4 257.333 186.6 257.333C189.4 257.333 200.333 244.667 204.067 236.933C209 226.8 210.733 217.467 210.067 205.467C209.267 193.333 205.667 182.667 198.2 170.8C191.4 159.867 182.2 148.133 180.333 148C179.533 148 175.533 152.267 171.4 157.6Z" fill="#002B0B"/>
</svg>
