<?xml version="1.0" standalone="no"?>
<!DOCTYPE svg PUBLIC "-//W3C//DTD SVG 20010904//EN"
 "http://www.w3.org/TR/2001/REC-SVG-20010904/DTD/svg10.dtd">
<svg version="1.0" xmlns="http://www.w3.org/2000/svg"
 width="558.000000pt" height="597.000000pt" viewBox="0 0 558.000000 597.000000"
 preserveAspectRatio="xMidYMid meet">

<g transform="translate(0.000000,597.000000) scale(0.100000,-0.100000)"
fill="#000000" stroke="none">
<path d="M2696 5137 c-22 -12 -53 -39 -70 -60 -26 -33 -31 -48 -34 -107 -4
-60 -1 -75 21 -112 31 -53 72 -84 131 -100 135 -36 274 110 236 251 -32 120
-181 187 -284 128z"/>
<path d="M2625 4579 c-161 -21 -355 -87 -502 -171 -234 -135 -421 -335 -545
-583 -180 -358 -185 -787 -14 -1170 84 -187 296 -434 471 -549 236 -155 466
-226 738 -227 642 -3 1202 451 1339 1084 28 130 31 378 6 502 -77 376 -300
705 -616 910 -258 167 -580 241 -877 204z m306 -374 c368 -64 659 -334 745
-692 22 -88 22 -274 1 -370 -70 -322 -345 -598 -669 -672 -46 -11 -104 -22
-130 -26 l-48 -6 0 81 c0 262 128 480 387 661 55 38 73 38 73 -2 0 -34 -11
-47 -133 -148 -74 -61 -128 -125 -174 -201 -25 -41 -68 -158 -61 -165 8 -8
144 42 207 75 192 103 325 304 376 572 l12 67 -54 7 c-110 13 -238 -10 -353
-64 -137 -64 -236 -184 -301 -361 l-23 -64 -17 51 c-73 216 -226 365 -429 419
-62 16 -271 26 -284 12 -10 -9 42 -215 71 -286 80 -191 229 -333 422 -403 45
-17 86 -30 91 -30 28 0 -42 158 -111 251 -28 38 -87 99 -132 135 -105 86 -117
100 -117 135 0 41 21 37 93 -18 250 -192 354 -366 365 -612 l5 -113 -54 7
c-376 48 -653 269 -776 620 -26 76 -28 89 -28 255 0 171 1 177 32 270 92 271
303 484 570 576 161 55 289 66 444 39z m976 -1132 c-15 -219 -127 -446 -307
-621 -346 -339 -869 -434 -1299 -236 -283 130 -521 399 -607 683 -21 69 -35
192 -26 225 8 28 9 26 21 -30 35 -158 143 -351 277 -494 347 -368 849 -461
1309 -241 287 137 536 436 611 734 9 37 19 67 22 67 3 0 2 -39 -1 -87z"/>
<path d="M2718 3978 c-161 -204 -200 -413 -111 -595 26 -52 114 -153 134 -153
5 0 9 107 9 270 0 244 2 270 17 279 11 6 24 6 35 0 17 -9 18 -31 18 -279 0
-203 3 -270 12 -270 21 0 103 95 131 153 37 76 50 146 45 236 -6 91 -33 171
-89 260 -51 82 -120 170 -134 171 -6 0 -36 -32 -67 -72z"/>
<path d="M2536 1326 c-51 -19 -104 -72 -117 -116 -6 -21 -9 -127 -7 -271 l3
-236 28 -36 c48 -63 93 -79 212 -75 90 3 106 6 142 30 24 16 49 44 62 70 19
41 21 60 21 269 0 213 -1 227 -22 269 -14 26 -41 57 -66 74 -37 27 -52 30
-130 33 -58 2 -100 -1 -126 -11z m152 -128 c9 -9 12 -75 12 -234 0 -189 -2
-225 -16 -238 -18 -18 -47 -20 -75 -6 -18 10 -19 24 -19 238 0 164 3 231 12
240 16 16 70 16 86 0z"/>
<path d="M823 1319 c-48 -14 -99 -68 -113 -118 -7 -29 -10 -118 -8 -265 3
-252 8 -270 90 -316 40 -23 55 -25 201 -28 l157 -4 0 221 0 221 -80 0 -80 0 0
-160 0 -160 -30 0 c-17 0 -39 9 -50 20 -19 19 -20 33 -20 233 0 263 -10 247
148 247 l112 0 0 60 0 60 -147 -1 c-82 0 -162 -5 -180 -10z"/>
<path d="M1582 1273 l3 -58 95 -5 c91 -5 95 -6 108 -32 21 -45 0 -100 -67
-172 -91 -98 -90 -111 27 -298 l67 -108 103 0 103 0 -29 43 c-127 190 -154
234 -154 253 0 12 23 50 51 83 76 92 84 112 79 198 -3 69 -5 75 -41 111 l-37
37 -156 3 -155 4 3 -59z"/>
<path d="M3333 1128 c6 -196 24 -373 47 -457 15 -57 40 -71 128 -71 75 0 101
8 139 42 l22 20 38 -31 c35 -29 43 -31 119 -31 118 0 127 9 148 147 24 161 36
313 36 456 l0 127 -84 0 -83 0 -7 -142 c-9 -187 -26 -408 -32 -430 -8 -26 -21
-22 -76 22 -28 22 -54 40 -58 40 -5 0 -31 -18 -59 -40 -56 -45 -67 -48 -75
-22 -7 22 -23 239 -32 425 l-7 147 -85 0 -85 0 6 -202z"/>
<path d="M4571 1303 c-22 -22 -32 -50 -50 -133 -44 -204 -52 -267 -58 -417
l-6 -153 87 0 86 0 0 144 c0 134 20 304 48 401 8 26 10 27 15 10 28 -86 41
-190 46 -360 l6 -190 83 -3 82 -3 0 139 c0 142 -17 267 -62 455 -30 125 -44
137 -160 137 -84 0 -91 -2 -117 -27z"/>
</g>
</svg>
