<svg width="825" height="228" viewBox="0 0 825 228" fill="none" xmlns="http://www.w3.org/2000/svg">
<path fill-rule="evenodd" clip-rule="evenodd" d="M88.263 2.57953H36.748C17.2457 2.57953 1.25827 18.5291 1.25827 38.0693V128.06C1.25827 147.6 17.2457 163.55 36.7858 163.55H88.263V67.5496H57.7622V139.058H51.526C43.2488 139.058 36.4835 132.293 36.4835 124.054V42.0756C36.4835 33.7984 43.2488 27.0709 51.4882 27.0709H88.263V2.57953Z" fill="black" stroke="black" stroke-width="0.755906"/>
<path fill-rule="evenodd" clip-rule="evenodd" d="M173.378 2.05038V27.3354H203.992C203.992 27.3354 214.499 27.6756 214.499 42.6803C214.499 57.685 207.885 66.0756 200.893 73.3323C193.901 80.5512 188.761 85.4268 187.249 92.5701C185.775 99.7134 188.761 108.935 194.014 118.573C199.268 128.211 218.279 161.962 218.279 161.962H257.51L223.759 104.702C223.759 104.702 218.128 97.3323 224.515 89.0551C230.902 80.8157 245.756 62.8252 247.532 51.9401V27.4488C247.532 27.4488 245.265 2.6929 219.753 2.6929C194.279 2.6929 173.378 2.6929 173.378 2.05038Z" fill="black" stroke="black" stroke-width="0.755906"/>
<path fill-rule="evenodd" clip-rule="evenodd" d="M373.088 0.651978H386.695C407.973 0.651978 425.397 18.0378 425.397 39.3165V126.624C425.397 147.902 407.973 165.326 386.695 165.326H373.088C351.809 165.326 334.386 147.902 334.386 126.624V39.3165C334.386 18.0378 351.809 0.651978 373.088 0.651978ZM378.191 27.8268H381.592C386.959 27.8268 391.343 32.211 391.343 37.5402V128.4C391.343 133.767 386.959 138.151 381.592 138.151H378.191C372.824 138.151 368.439 133.767 368.439 128.4V37.5402C368.439 32.211 372.824 27.8268 378.191 27.8268Z" fill="black" stroke="black" stroke-width="0.755906"/>
<path fill-rule="evenodd" clip-rule="evenodd" d="M513.838 2.57953C513.838 2.57953 511.57 77.5654 524.08 149.565C524.08 149.565 526.726 161.698 537.082 161.698C547.476 161.698 561.573 161.698 561.573 161.698C561.573 161.698 565.58 162.34 569.964 158.447C573.857 154.97 579.261 149.83 580.395 148.772C581.491 149.83 586.896 154.97 590.789 158.447C595.173 162.34 599.18 161.698 599.18 161.698C599.18 161.698 613.315 161.698 623.671 161.698C634.065 161.698 636.672 149.565 636.672 149.565C649.183 77.5654 646.915 2.57953 646.915 2.57953C646.915 3.07087 614.184 3.07087 614.184 3.07087C614.184 3.07087 610.065 131.839 605.302 132.822C600.54 133.843 595.438 126.813 589.542 120.69C584.515 115.436 581.189 115.172 580.395 115.172C579.564 115.172 576.276 115.436 571.211 120.69C565.315 126.813 560.213 133.843 555.45 132.822C550.726 131.839 546.568 3.07087 546.568 3.07087C546.568 3.07087 513.838 3.07087 513.838 2.57953Z" fill="black" stroke="black" stroke-width="0.755906"/>
<path fill-rule="evenodd" clip-rule="evenodd" d="M735.091 162.076H767.595C767.595 162.076 768.087 113.093 768.313 98.0882C768.54 84.7465 777.271 41.5465 779.198 32.1354C781.126 41.5465 789.857 84.7465 790.083 98.0882C790.31 113.093 790.839 162.076 790.839 162.076H823.343C823.343 162.076 822.814 119.594 822.096 103.833C821.34 88.0724 810.568 30.0567 806.562 16.0724C802.594 2.0882 790.348 2.0882 790.348 2.0882H779.576H778.82H768.087C768.087 2.0882 755.841 2.0882 751.835 16.0724C747.828 30.0567 737.094 88.0724 736.339 103.833C735.583 119.594 735.091 162.076 735.091 162.076Z" fill="black" stroke="black" stroke-width="0.755906"/>
<path d="M13.6551 221.187H7.4567L6.28504 224.06H2.05197L8.55276 209.357H12.6346L19.1732 224.06H14.8268L13.6551 221.187ZM12.4457 218.126L10.5559 213.439L8.66614 218.126H12.4457ZM29.8315 224.362C27.6772 224.362 25.9764 223.757 24.7291 222.586C23.5197 221.376 22.915 219.676 22.915 217.483V209.357H27.0724V217.37C27.0724 219.713 28.0173 220.923 29.9071 220.923C31.7213 220.923 32.6661 219.713 32.6661 217.37V209.357H36.748V217.483C36.748 219.676 36.1433 221.376 34.9339 222.586C33.7244 223.757 32.0236 224.362 29.8315 224.362ZM45.5165 212.646H40.9811V209.357H54.1717V212.646H49.674V224.06H45.5165V212.646ZM66.0016 224.362C64.4142 224.362 63.0158 224.022 61.8063 223.38C60.5591 222.699 59.5764 221.792 58.8583 220.62C58.178 219.487 57.8 218.164 57.8 216.69C57.8 215.254 58.178 213.931 58.8583 212.759C59.5764 211.587 60.5591 210.68 61.8063 210.038C63.0158 209.395 64.4142 209.055 66.0016 209.055C67.5512 209.055 68.9496 209.395 70.1969 210.038C71.4063 210.68 72.389 211.587 73.1071 212.759C73.8252 213.931 74.1654 215.254 74.1654 216.69C74.1654 218.164 73.8252 219.487 73.1071 220.62C72.389 221.792 71.4063 222.699 70.1969 223.38C68.9496 224.022 67.5512 224.362 66.0016 224.362ZM66.0016 220.923C66.7197 220.923 67.4 220.734 68.0047 220.394C68.6095 220.016 69.1008 219.524 69.4409 218.882C69.7811 218.277 69.9701 217.521 69.9701 216.69C69.9701 215.858 69.7811 215.14 69.4409 214.498C69.1008 213.855 68.6095 213.364 68.0047 213.024C67.4 212.683 66.7197 212.494 66.0016 212.494C65.2457 212.494 64.5654 212.683 63.9606 213.024C63.3559 213.364 62.9024 213.855 62.5244 214.498C62.1843 215.14 61.9953 215.858 61.9953 216.69C61.9953 217.521 62.1843 218.277 62.5244 218.882C62.9024 219.524 63.3559 220.016 63.9606 220.394C64.5654 220.734 65.2457 220.923 66.0016 220.923ZM92.685 224.06L92.6472 216.274L88.8677 222.624H87.0158L83.2362 216.463V224.06H79.3811V209.357H82.8205L87.9984 217.824L93.0252 209.357H96.4646L96.5024 224.06H92.685ZM112.339 221.187H106.14L104.969 224.06H100.735L107.198 209.357H111.318L117.819 224.06H113.51L112.339 221.187ZM111.129 218.126L109.239 213.439L107.35 218.126H111.129ZM124.433 212.646H119.935V209.357H133.126V212.646H128.591V224.06H124.433V212.646ZM137.699 209.357H141.857V224.06H137.699V209.357ZM160.301 220.772V224.06H147.11V221.452L154.556 212.646H147.299V209.357H159.998V211.965L152.553 220.772H160.301ZM175.041 221.187H168.805L167.671 224.06H163.4L169.901 209.357H174.02L180.521 224.06H176.175L175.041 221.187ZM173.831 218.126L171.942 213.439L170.014 218.126H173.831ZM198.739 209.357V224.06H195.299L188.798 216.236V224.06H184.754V209.357H188.156L194.657 217.181V209.357H198.739ZM204.71 209.357H211.665C213.29 209.357 214.726 209.66 215.973 210.265C217.22 210.831 218.203 211.701 218.883 212.797C219.564 213.931 219.904 215.216 219.904 216.69C219.904 218.202 219.564 219.487 218.883 220.583C218.203 221.717 217.22 222.548 215.973 223.153C214.726 223.757 213.29 224.06 211.665 224.06H204.71V209.357ZM211.513 220.734C212.761 220.734 213.781 220.394 214.537 219.676C215.331 218.957 215.709 217.975 215.709 216.69C215.709 215.443 215.331 214.46 214.537 213.742C213.781 213.024 212.761 212.683 211.513 212.683H208.868V220.734H211.513ZM232.565 224.362C230.978 224.362 229.58 224.022 228.37 223.38C227.123 222.699 226.14 221.792 225.422 220.62C224.704 219.487 224.364 218.164 224.364 216.69C224.364 215.254 224.704 213.931 225.422 212.759C226.14 211.587 227.123 210.68 228.37 210.038C229.58 209.395 230.978 209.055 232.565 209.055C234.115 209.055 235.513 209.395 236.761 210.038C237.97 210.68 238.953 211.587 239.671 212.759C240.389 213.931 240.729 215.254 240.729 216.69C240.729 218.164 240.389 219.487 239.671 220.62C238.953 221.792 237.97 222.699 236.761 223.38C235.513 224.022 234.115 224.362 232.565 224.362ZM232.565 220.923C233.283 220.923 233.964 220.734 234.569 220.394C235.173 220.016 235.665 219.524 236.005 218.882C236.345 218.277 236.534 217.521 236.534 216.69C236.534 215.858 236.345 215.14 236.005 214.498C235.665 213.855 235.173 213.364 234.569 213.024C233.964 212.683 233.283 212.494 232.565 212.494C231.809 212.494 231.129 212.683 230.524 213.024C229.92 213.364 229.466 213.855 229.088 214.498C228.748 215.14 228.559 215.858 228.559 216.69C228.559 217.521 228.748 218.277 229.088 218.882C229.466 219.524 229.92 220.016 230.524 220.394C231.129 220.734 231.809 220.923 232.565 220.923ZM263.898 220.847V224.06H252.068V209.357H263.633V212.57H256.187V215.027H262.726V218.164H256.187V220.847H263.898ZM269.227 209.357H273.384V220.772H280.414V224.06H269.227V209.357ZM297.951 209.357C299.274 209.357 300.446 209.546 301.428 210C302.411 210.454 303.167 211.058 303.696 211.89C304.225 212.721 304.49 213.666 304.49 214.8C304.49 215.896 304.225 216.841 303.696 217.672C303.167 218.466 302.411 219.109 301.428 219.562C300.446 219.978 299.274 220.205 297.951 220.205H295.381V224.06H291.224V209.357H297.951ZM297.687 216.917C298.556 216.917 299.198 216.765 299.614 216.387C300.068 216.009 300.294 215.48 300.294 214.8C300.294 214.12 300.068 213.553 299.614 213.175C299.198 212.797 298.556 212.608 297.687 212.608H295.381V216.917H297.687ZM315.98 220.167H313.712V224.06H309.554V209.357H316.282C317.605 209.357 318.739 209.546 319.721 210C320.704 210.454 321.46 211.058 322.027 211.89C322.556 212.721 322.82 213.666 322.82 214.8C322.82 215.858 322.556 216.765 322.065 217.559C321.573 218.353 320.855 218.995 319.91 219.449L323.085 224.06H318.663L315.98 220.167ZM318.587 214.8C318.587 214.12 318.398 213.553 317.945 213.175C317.529 212.797 316.887 212.608 316.017 212.608H313.712V216.917H316.017C316.887 216.917 317.529 216.765 317.945 216.387C318.398 216.009 318.587 215.48 318.587 214.8ZM339.942 220.847V224.06H328.15V209.357H339.677V212.57H332.269V215.027H338.808V218.164H332.269V220.847H339.942ZM350.487 224.362C349.277 224.362 348.143 224.211 347.009 223.909C345.876 223.606 344.969 223.228 344.25 222.737L345.649 219.676C346.291 220.091 347.047 220.469 347.917 220.734C348.786 220.998 349.655 221.112 350.487 221.112C352.074 221.112 352.906 220.734 352.906 219.902C352.906 219.487 352.679 219.184 352.225 218.995C351.734 218.769 351.016 218.58 349.995 218.353C348.899 218.088 347.992 217.861 347.236 217.559C346.48 217.294 345.838 216.879 345.309 216.274C344.78 215.669 344.515 214.838 344.515 213.817C344.515 212.91 344.78 212.117 345.271 211.398C345.762 210.68 346.48 210.113 347.463 209.66C348.446 209.244 349.617 209.055 351.054 209.055C351.998 209.055 352.943 209.169 353.888 209.357C354.833 209.584 355.665 209.924 356.383 210.34L355.098 213.439C353.699 212.683 352.339 212.268 351.016 212.268C350.184 212.268 349.58 212.419 349.202 212.646C348.824 212.91 348.635 213.213 348.635 213.628C348.635 214.006 348.861 214.309 349.315 214.498C349.769 214.687 350.487 214.876 351.469 215.102C352.603 215.329 353.548 215.594 354.266 215.858C355.022 216.161 355.627 216.576 356.194 217.181C356.723 217.786 356.987 218.58 356.987 219.6C356.987 220.469 356.761 221.301 356.269 222.019C355.778 222.699 355.022 223.304 354.039 223.72C353.057 224.135 351.885 224.362 350.487 224.362ZM373.769 220.847V224.06H361.939V209.357H373.466V212.57H366.058V215.027H372.597V218.164H366.058V220.847H373.769ZM393.12 209.357V224.06H389.68L383.18 216.236V224.06H379.098V209.357H382.537L389.038 217.181V209.357H393.12ZM402.228 212.646H397.693V209.357H410.883V212.646H406.386V224.06H402.228V212.646ZM427.287 220.847V224.06H415.494V209.357H427.022V212.57H419.614V215.027H426.153V218.164H419.614V220.847H427.287ZM434.354 219.524C435.035 219.524 435.639 219.751 436.055 220.167C436.509 220.62 436.735 221.187 436.735 221.868C436.735 222.208 436.698 222.51 436.622 222.85C436.546 223.153 436.357 223.644 436.055 224.287L434.732 227.348H432.238L433.22 223.946C432.805 223.757 432.502 223.493 432.313 223.115C432.087 222.775 431.973 222.359 431.973 221.868C431.973 221.187 432.2 220.62 432.654 220.167C433.107 219.751 433.674 219.524 434.354 219.524ZM455.293 224.362C453.743 224.362 452.383 224.022 451.135 223.38C449.926 222.737 448.943 221.83 448.263 220.658C447.545 219.487 447.205 218.164 447.205 216.69C447.205 215.216 447.545 213.931 448.263 212.759C448.943 211.587 449.926 210.68 451.135 210.038C452.383 209.357 453.743 209.055 455.293 209.055C456.654 209.055 457.863 209.282 458.921 209.773C460.017 210.227 460.924 210.945 461.643 211.814L458.959 214.233C458.014 213.061 456.88 212.494 455.52 212.494C454.726 212.494 454.008 212.683 453.365 213.024C452.761 213.364 452.269 213.855 451.929 214.498C451.589 215.14 451.4 215.858 451.4 216.69C451.4 217.521 451.589 218.277 451.929 218.882C452.269 219.524 452.761 220.016 453.365 220.394C454.008 220.734 454.726 220.923 455.52 220.923C456.88 220.923 458.014 220.318 458.959 219.184L461.643 221.565C460.924 222.472 460.017 223.153 458.921 223.644C457.863 224.135 456.654 224.362 455.293 224.362ZM473.624 224.362C472.074 224.362 470.676 224.022 469.428 223.38C468.181 222.699 467.198 221.792 466.518 220.62C465.8 219.487 465.422 218.164 465.422 216.69C465.422 215.254 465.8 213.931 466.518 212.759C467.198 211.587 468.181 210.68 469.428 210.038C470.676 209.395 472.074 209.055 473.624 209.055C475.173 209.055 476.572 209.395 477.819 210.038C479.066 210.68 480.011 211.587 480.729 212.759C481.447 213.931 481.787 215.254 481.787 216.69C481.787 218.164 481.447 219.487 480.729 220.62C480.011 221.792 479.066 222.699 477.819 223.38C476.572 224.022 475.173 224.362 473.624 224.362ZM473.624 220.923C474.38 220.923 475.022 220.734 475.627 220.394C476.231 220.016 476.723 219.524 477.063 218.882C477.403 218.277 477.592 217.521 477.592 216.69C477.592 215.858 477.403 215.14 477.063 214.498C476.723 213.855 476.231 213.364 475.627 213.024C475.022 212.683 474.38 212.494 473.624 212.494C472.868 212.494 472.187 212.683 471.583 213.024C471.016 213.364 470.524 213.855 470.184 214.498C469.806 215.14 469.655 215.858 469.655 216.69C469.655 217.521 469.806 218.277 470.184 218.882C470.524 219.524 471.016 220.016 471.583 220.394C472.187 220.734 472.868 220.923 473.624 220.923ZM501.025 209.357V224.06H497.586L491.085 216.236V224.06H487.003V209.357H490.443L496.943 217.181V209.357H501.025ZM512.175 224.362C511.003 224.362 509.831 224.211 508.698 223.909C507.602 223.606 506.657 223.228 505.976 222.737L507.337 219.676C508.017 220.091 508.773 220.469 509.643 220.734C510.512 220.998 511.343 221.112 512.213 221.112C513.8 221.112 514.594 220.734 514.594 219.902C514.594 219.487 514.367 219.184 513.913 218.995C513.46 218.769 512.742 218.58 511.721 218.353C510.625 218.088 509.68 217.861 508.924 217.559C508.206 217.294 507.564 216.879 507.035 216.274C506.506 215.669 506.241 214.838 506.241 213.817C506.241 212.91 506.468 212.117 506.959 211.398C507.45 210.68 508.169 210.113 509.151 209.66C510.134 209.244 511.343 209.055 512.742 209.055C513.724 209.055 514.669 209.169 515.614 209.357C516.559 209.584 517.353 209.924 518.071 210.34L516.786 213.439C515.387 212.683 514.027 212.268 512.742 212.268C511.91 212.268 511.306 212.419 510.928 212.646C510.55 212.91 510.361 213.213 510.361 213.628C510.361 214.006 510.587 214.309 511.003 214.498C511.457 214.687 512.175 214.876 513.195 215.102C514.291 215.329 515.236 215.594 515.954 215.858C516.71 216.161 517.353 216.576 517.882 217.181C518.411 217.786 518.713 218.58 518.713 219.6C518.713 220.469 518.449 221.301 517.957 222.019C517.466 222.699 516.748 223.304 515.765 223.72C514.783 224.135 513.573 224.362 512.175 224.362ZM526.575 212.646H522.039V209.357H535.23V212.646H530.732V224.06H526.575V212.646ZM546.266 220.167H543.998V224.06H539.803V209.357H546.569C547.891 209.357 549.025 209.546 550.008 210C550.991 210.454 551.746 211.058 552.276 211.89C552.843 212.721 553.107 213.666 553.107 214.8C553.107 215.858 552.843 216.765 552.351 217.559C551.86 218.353 551.142 218.995 550.197 219.449L553.372 224.06H548.912L546.266 220.167ZM548.874 214.8C548.874 214.12 548.685 213.553 548.231 213.175C547.816 212.797 547.135 212.608 546.304 212.608H543.998V216.917H546.304C547.135 216.917 547.816 216.765 548.231 216.387C548.685 216.009 548.874 215.48 548.874 214.8ZM565.202 224.362C563.009 224.362 561.309 223.757 560.099 222.586C558.89 221.376 558.285 219.676 558.285 217.483V209.357H562.443V217.37C562.443 219.713 563.387 220.923 565.239 220.923C567.091 220.923 568.036 219.713 568.036 217.37V209.357H572.118V217.483C572.118 219.676 571.513 221.376 570.304 222.586C569.094 223.757 567.394 224.362 565.202 224.362ZM585.649 218.769V224.06H581.491V218.731L575.86 209.357H580.282L583.759 215.178L587.236 209.357H591.28L585.649 218.769ZM607.117 220.847V224.06H595.324V209.357H606.852V212.57H599.444V215.027H605.983V218.164H599.444V220.847H607.117ZM626.468 209.357V224.06H623.066L616.565 216.236V224.06H612.483V209.357H615.923L622.424 217.181V209.357H626.468ZM632.477 209.357H639.431C641.019 209.357 642.455 209.66 643.702 210.265C644.95 210.831 645.932 211.701 646.613 212.797C647.293 213.931 647.633 215.216 647.633 216.69C647.633 218.202 647.293 219.487 646.613 220.583C645.932 221.717 644.95 222.548 643.702 223.153C642.455 223.757 641.019 224.06 639.431 224.06H632.477V209.357ZM639.243 220.734C640.528 220.734 641.548 220.394 642.304 219.676C643.06 218.957 643.438 217.975 643.438 216.69C643.438 215.443 643.06 214.46 642.304 213.742C641.548 213.024 640.528 212.683 639.243 212.683H636.635V220.734H639.243ZM660.294 224.362C658.745 224.362 657.346 224.022 656.099 223.38C654.852 222.699 653.869 221.792 653.189 220.62C652.471 219.487 652.093 218.164 652.093 216.69C652.093 215.254 652.471 213.931 653.189 212.759C653.869 211.587 654.852 210.68 656.099 210.038C657.346 209.395 658.745 209.055 660.294 209.055C661.844 209.055 663.243 209.395 664.49 210.038C665.737 210.68 666.682 211.587 667.4 212.759C668.118 213.931 668.458 215.254 668.458 216.69C668.458 218.164 668.118 219.487 667.4 220.62C666.682 221.792 665.737 222.699 664.49 223.38C663.243 224.022 661.844 224.362 660.294 224.362ZM660.294 220.923C661.05 220.923 661.693 220.734 662.298 220.394C662.902 220.016 663.394 219.524 663.734 218.882C664.074 218.277 664.263 217.521 664.263 216.69C664.263 215.858 664.074 215.14 663.734 214.498C663.394 213.855 662.902 213.364 662.298 213.024C661.693 212.683 661.05 212.494 660.294 212.494C659.539 212.494 658.858 212.683 658.254 213.024C657.687 213.364 657.195 213.855 656.855 214.498C656.477 215.14 656.326 215.858 656.326 216.69C656.326 217.521 656.477 218.277 656.855 218.882C657.195 219.524 657.687 220.016 658.254 220.394C658.858 220.734 659.539 220.923 660.294 220.923ZM691.627 220.847V224.06H679.797V209.357H691.362V212.57H683.917V215.027H690.455V218.164H683.917V220.847H691.627ZM696.994 209.357H701.151V220.772H708.181V224.06H696.994V209.357ZM723.11 212.57V215.783H729.611V219.033H723.11V224.06H718.953V209.357H730.518V212.57H723.11ZM742.272 224.362C740.08 224.362 738.417 223.757 737.17 222.586C735.961 221.376 735.356 219.676 735.356 217.483V209.357H739.513V217.37C739.513 219.713 740.458 220.923 742.31 220.923C744.162 220.923 745.107 219.713 745.107 217.37V209.357H749.189V217.483C749.189 219.676 748.584 221.376 747.375 222.586C746.165 223.757 744.465 224.362 742.272 224.362ZM757.957 212.646H753.422V209.357H766.613V212.646H762.115V224.06H757.957V212.646ZM777.762 224.362C775.57 224.362 773.869 223.757 772.66 222.586C771.45 221.376 770.846 219.676 770.846 217.483V209.357H775.003V217.37C775.003 219.713 775.948 220.923 777.8 220.923C779.652 220.923 780.597 219.713 780.597 217.37V209.357H784.679V217.483C784.679 219.676 784.074 221.376 782.865 222.586C781.655 223.757 779.954 224.362 777.762 224.362ZM796.962 220.167H794.694V224.06H790.537V209.357H797.265C798.587 209.357 799.759 209.546 800.742 210C801.724 210.454 802.48 211.058 803.009 211.89C803.539 212.721 803.803 213.666 803.803 214.8C803.803 215.858 803.576 216.765 803.085 217.559C802.556 218.353 801.876 218.995 800.931 219.449L804.106 224.06H799.646L796.962 220.167ZM799.608 214.8C799.608 214.12 799.381 213.553 798.965 213.175C798.512 212.797 797.869 212.608 797.038 212.608H794.694V216.917H797.038C797.869 216.917 798.512 216.765 798.965 216.387C799.381 216.009 799.608 215.48 799.608 214.8ZM816.578 224.362C814.991 224.362 813.592 224.022 812.383 223.38C811.135 222.699 810.153 221.792 809.435 220.62C808.754 219.487 808.376 218.164 808.376 216.69C808.376 215.254 808.754 213.931 809.435 212.759C810.153 211.587 811.135 210.68 812.383 210.038C813.592 209.395 814.991 209.055 816.578 209.055C818.128 209.055 819.526 209.395 820.773 210.038C821.983 210.68 822.965 211.587 823.683 212.759C824.402 213.931 824.742 215.254 824.742 216.69C824.742 218.164 824.402 219.487 823.683 220.62C822.965 221.792 821.983 222.699 820.773 223.38C819.526 224.022 818.128 224.362 816.578 224.362ZM816.578 220.923C817.296 220.923 817.976 220.734 818.581 220.394C819.186 220.016 819.677 219.524 820.017 218.882C820.357 218.277 820.546 217.521 820.546 216.69C820.546 215.858 820.357 215.14 820.017 214.498C819.677 213.855 819.186 213.364 818.581 213.024C817.976 212.683 817.296 212.494 816.578 212.494C815.822 212.494 815.142 212.683 814.537 213.024C813.932 213.364 813.479 213.855 813.101 214.498C812.761 215.14 812.572 215.858 812.572 216.69C812.572 217.521 812.761 218.277 813.101 218.882C813.479 219.524 813.932 220.016 814.537 220.394C815.142 220.734 815.822 220.923 816.578 220.923Z" fill="black"/>
</svg>
